<?xml version="1.0" encoding="iso-8859-1"?>
<!-- Generator: Adobe Illustrator 19.0.0, SVG Export Plug-In . SVG Version: 6.00 Build 0)  -->
<svg version="1.1" id="Layer_1" xmlns="http://www.w3.org/2000/svg" xmlns:xlink="http://www.w3.org/1999/xlink" x="0px" y="0px"
	 viewBox="0 0 512 512" style="enable-background:new 0 0 512 512;" xml:space="preserve">
<g>
	<g>
		<path d="M498,144.4c-1.6-4-1.2-9.2-0.8-14.4c0.4-6.4,1.2-13.2-1.6-19.2s-8.4-10-14-13.6c-4-2.8-8-5.6-10-8.8
			C432.8,29.6,368.4,0,280,0c-38.4,0-76.8,11.2-113.2,33.6c-2.8,1.6-7.2,2-11.2,2.4c-5.6,0.4-11.6,0.8-16,4
			c-4.8,3.6-6.8,8.8-8.8,14.4c-1.6,4.4-3.2,8.4-5.6,10.4c-26.8,24-50.8,53.2-70.4,86.8c-1.6,2.8-5.6,5.2-9.6,7.2
			c-5.2,2.8-10.4,6-13.2,11.2c-2.4,4.8-1.6,10.4-0.8,16c0.8,4,1.2,8.4,0,10.8C10.8,243.2,0,291.2,0,336c0,42.4,8.8,78,26,106
			c0.8,1.6,1.6,5.6,2.4,8.8c1.2,5.2,2,10,4.4,12.8c4,5.2,9.6,7.2,14,8.8c3.2,1.2,6.4,2,9.6,4.4c28.8,23.6,68,35.2,116,35.2
			c72.4,0,135.6-12.8,188-37.6c5.6-2.8,12.4-4,19.2-5.2c8.4-1.6,16.8-2.8,23.6-7.6c5.6-3.6,9.2-10.4,12.8-16.4
			c2.8-4.8,5.2-9.2,8.4-12C480,385.2,512,316.8,512,246C512,208.4,507.2,174,498,144.4z M418.8,427.2c-4,3.6-7.2,8.8-10,14
			c-3.2,5.6-6.4,11.2-10.4,14c-5.6,3.6-12.8,5.2-20.8,6.4c-7.2,1.2-14.4,2.4-21.2,5.6C306,491.6,244,504,172.4,504
			c-46,0-83.6-11.2-110.8-33.6c-4-3.2-8.4-4.8-12-6c-4.4-1.2-7.6-2.4-10.4-6c-1.2-1.2-2-6-2.8-9.6c-0.8-4.4-2-8.8-3.6-11.2
			C16.4,410.8,8,376.8,8,336c0-43.6,10.4-90.4,30.4-136c2-4.8,1.2-10,0.4-15.2c-0.8-4.4-1.2-8.8,0-11.2c1.6-3.2,5.6-5.6,10-8
			c4.8-2.8,9.6-5.6,12.4-10.4C80.8,122.4,104,94,130,70.4c4-3.6,6-8.8,8-13.6c1.6-4.4,3.2-8.8,6.4-10.8c2.4-2,7.2-2.4,12-2.8
			c5.2-0.4,10.4-0.8,14.8-3.2C206,18.8,242.8,8,280,8c85.6,0,148,28.4,185.2,84.8c2.8,4.4,7.6,7.6,12.4,10.8
			c4.8,3.2,9.6,6.4,11.2,10.4c1.6,4,1.2,9.2,0.8,15.2s-0.8,12,0.8,17.2c9.2,29.2,13.6,62.4,13.6,99.2
			C504,314.4,472.8,380.8,418.8,427.2z"/>
	</g>
</g>
<g>
	<g>
		<path d="M223.6,252c-2.4,0-4,1.6-4,4c0,2.4-1.6,4-4,4c-2.4,0-4-1.6-4-4c0-2.4,1.6-4,4-4c2.4,0,4-1.6,4-4c0-2.4-1.6-4-4-4
			c-6.8,0-12,5.2-12,12s5.2,12,12,12c6.8,0,12-5.2,12-12C227.6,253.6,225.6,252,223.6,252z"/>
	</g>
</g>
<g>
	<g>
		<path d="M383.2,332.4c-2.4,0-4,1.6-4,4c0,8.8-7.2,15.6-15.6,15.6c-8.4,0-15.6-6.8-15.6-15.6c0-8.8,7.2-15.6,15.6-15.6
			c2.4,0,4-1.6,4-4c0-2.4-1.6-4-4-4c-13.2,0-23.6,10.8-23.6,23.6c0,12.8,10.8,23.6,23.6,23.6c12.8,0,23.6-10.8,23.6-23.6
			C387.2,334.4,385.2,332.4,383.2,332.4z"/>
	</g>
</g>
<g>
	<g>
		<path d="M343.6,104c-2.4,0-4,1.6-4,4c0,4.4-3.6,7.6-7.6,7.6s-8-3.2-8-7.6s3.6-7.6,7.6-7.6c2.4,0,4-1.6,4-4c0-2.4-1.6-4-4-4
			c-8.8,0-15.6,7.2-15.6,15.6s7.2,15.6,15.6,15.6c8.4,0,16-6.8,16-15.6C347.6,105.6,346,104,343.6,104z"/>
	</g>
</g>
<g>
	<g>
		<path d="M218.4,129.2c-1.6-1.6-4-1.6-5.6,0c-0.8,0.8-1.2,2-1.2,2.8s0.4,2,1.2,2.8c0.4,0.8,1.6,1.2,2.8,1.2c1.2,0,2-0.4,2.8-1.2
			s1.2-2,1.2-2.8S219.2,130,218.4,129.2z"/>
	</g>
</g>
<g>
	<g>
		<path d="M174.4,389.2c-1.6-1.6-4.4-1.6-5.6,0c-0.8,0.8-1.2,1.6-1.2,2.8s0.4,2,1.2,2.8c0.8,0.8,1.6,1.2,2.8,1.2
			c1.2,0,2-0.4,2.8-1.2s1.2-2,1.2-2.8C175.6,390.8,175.2,390,174.4,389.2z"/>
	</g>
</g>
<g>
	<g>
		<path d="M394.4,205.2c-1.6-1.6-4.4-1.6-5.6,0c-0.8,0.8-1.2,1.6-1.2,2.8s0.4,2,1.2,2.8s1.6,1.2,2.8,1.2c1.2,0,2-0.4,2.8-1.2
			s1.2-2,1.2-2.8C395.6,206.8,395.2,206,394.4,205.2z"/>
	</g>
</g>
<g>
</g>
<g>
</g>
<g>
</g>
<g>
</g>
<g>
</g>
<g>
</g>
<g>
</g>
<g>
</g>
<g>
</g>
<g>
</g>
<g>
</g>
<g>
</g>
<g>
</g>
<g>
</g>
<g>
</g>
</svg>
